<svg width="40" height="40" viewBox="0 0 40 40" fill="none" xmlns="http://www.w3.org/2000/svg">
  <path opacity="0.15" fill-rule="evenodd" clip-rule="evenodd" d="M5 3C3.89543 3 3 3.89543 3 5V35C3 36.1046 3.89543 37 5 37H35C36.1046 37 37 36.1046 37 35V5C37 3.89543 36.1046 3 35 3H5Z" fill="url(#paint0_linear)"/>
  <path d="M10 12H30M10 20H30M10 28H30" stroke="url(#paint1_linear)" stroke-width="2" stroke-linecap="round"/>
  <circle cx="15" cy="12" r="2" fill="url(#paint2_linear)"/>
  <circle cx="25" cy="20" r="2" fill="url(#paint3_linear)"/>
  <circle cx="20" cy="28" r="2" fill="url(#paint4_linear)"/>
  <path d="M5 2H35C36.6569 2 38 3.34315 38 5V35C38 36.6569 36.6569 38 35 38H5C3.34315 38 2 36.6569 2 35V5C2 3.34315 3.34315 2 5 2Z" stroke="url(#paint5_linear)" stroke-width="2"/>
  <defs>
    <linearGradient id="paint0_linear" x1="3" y1="3" x2="37" y2="37" gradientUnits="userSpaceOnUse">
      <stop offset="0.259336" stop-color="#FFDB6E"/>
      <stop offset="1" stop-color="#FFBC5E"/>
    </linearGradient>
    <linearGradient id="paint1_linear" x1="10" y1="12" x2="30" y2="28" gradientUnits="userSpaceOnUse">
      <stop offset="0.259336" stop-color="#FFDB6E"/>
      <stop offset="1" stop-color="#FFBC5E"/>
    </linearGradient>
    <linearGradient id="paint2_linear" x1="13" y1="10" x2="17" y2="14" gradientUnits="userSpaceOnUse">
      <stop offset="0.259336" stop-color="#FFDB6E"/>
      <stop offset="1" stop-color="#FFBC5E"/>
    </linearGradient>
    <linearGradient id="paint3_linear" x1="23" y1="18" x2="27" y2="22" gradientUnits="userSpaceOnUse">
      <stop offset="0.259336" stop-color="#FFDB6E"/>
      <stop offset="1" stop-color="#FFBC5E"/>
    </linearGradient>
    <linearGradient id="paint4_linear" x1="18" y1="26" x2="22" y2="30" gradientUnits="userSpaceOnUse">
      <stop offset="0.259336" stop-color="#FFDB6E"/>
      <stop offset="1" stop-color="#FFBC5E"/>
    </linearGradient>
    <linearGradient id="paint5_linear" x1="2" y1="2" x2="38" y2="38" gradientUnits="userSpaceOnUse">
      <stop offset="0.259336" stop-color="#FFDB6E"/>
      <stop offset="1" stop-color="#FFBC5E"/>
    </linearGradient>
  </defs>
</svg>